<svg width="15" height="11" viewBox="0 0 15 11" fill="none" xmlns="http://www.w3.org/2000/svg">
<path d="M6.48994 1.88577C6.79504 1.58067 6.79504 1.08601 6.48994 0.780914C6.18483 0.47582 5.69025 0.47582 5.38511 0.780914L1.21845 4.94761C1.06589 5.10011 0.989624 5.30011 0.989624 5.50001C0.989624 5.60595 1.01071 5.70699 1.04891 5.79907C1.08703 5.89115 1.14354 5.97751 1.21845 6.0524L5.38511 10.2191C5.69025 10.5242 6.18483 10.5242 6.48994 10.2191C6.79504 9.91397 6.79504 9.41938 6.48994 9.11428L3.65698 6.28126H13.75C14.1815 6.28126 14.5313 5.93147 14.5313 5.50001C14.5313 5.06855 14.1815 4.71876 13.75 4.71876H3.65698L6.48994 1.88577Z" fill="white"/>
</svg>
