<svg width="17" height="20" viewBox="0 0 17 20" fill="none" xmlns="http://www.w3.org/2000/svg">
    <path d="M10.3708 1.30842C9.34751 0.251524 7.65241 0.251524 6.62907 1.30841L1.6307 6.47064C1.34363 6.76711 1.15073 7.14191 1.07629 7.54781C0.469252 10.8582 0.424439 14.2472 0.943752 17.5725L1.12761 18.7498C1.18568 19.1217 1.50595 19.3958 1.88231 19.3958H5.37498C5.66263 19.3958 5.89581 19.1626 5.89581 18.875V11.5833H11.1042V18.875C11.1042 19.1626 11.3373 19.3958 11.625 19.3958H15.1176C15.494 19.3958 15.8143 19.1217 15.8723 18.7498L16.0562 17.5725C16.5754 14.2472 16.5306 10.8582 15.9237 7.54781C15.8492 7.14191 15.6563 6.76711 15.3692 6.47064L10.3708 1.30842Z" fill="#A3B6CC"/>
    </svg>
    