<svg width="19" height="15" viewBox="0 0 19 15" fill="none" xmlns="http://www.w3.org/2000/svg">
    <path d="M11.4563 4.11459H1.16675C0.735279 4.11459 0.385498 3.76481 0.385498 3.33334C0.385498 2.90187 0.735279 2.55209 1.16675 2.55209H11.4563C11.7781 1.64179 12.6462 0.989594 13.6667 0.989594C14.6873 0.989594 15.5554 1.64179 15.8772 2.55209H17.8334C18.2649 2.55209 18.6147 2.90187 18.6147 3.33334C18.6147 3.76481 18.2649 4.11459 17.8334 4.11459H15.8772C15.5554 5.0249 14.6873 5.67709 13.6667 5.67709C12.6462 5.67709 11.7781 5.0249 11.4563 4.11459Z" fill="#A3B6CC"/>
    <path d="M17.8334 12.4479C18.2649 12.4479 18.6147 12.0981 18.6147 11.6667C18.6147 11.2352 18.2649 10.8854 17.8334 10.8854H7.54383C7.22205 9.97512 6.35389 9.32294 5.33341 9.32294C4.31294 9.32294 3.44478 9.97512 3.12303 10.8854H1.16675C0.735279 10.8854 0.385498 11.2352 0.385498 11.6667C0.385498 12.0981 0.735279 12.4479 1.16675 12.4479H3.12303C3.44478 13.3582 4.31294 14.0104 5.33341 14.0104C6.35389 14.0104 7.22205 13.3582 7.54383 12.4479H17.8334Z" fill="#A3B6CC"/>
    </svg>
    