<svg width="23" height="21" viewBox="0 0 23 21" fill="none" xmlns="http://www.w3.org/2000/svg">
    <path d="M5.5929 5.11211C8.85813 4.82828 12.1419 4.82827 15.4071 5.11211L16.9803 5.24886C18.0275 5.3399 18.9245 5.96456 19.3893 6.85808C19.4487 6.97238 19.4041 7.11078 19.2946 7.1786L12.7675 11.2192C11.3677 12.0857 9.60251 12.1039 8.18513 11.2664L1.61448 7.38369C1.50832 7.32096 1.45959 7.19184 1.50744 7.07819C1.9326 6.06822 2.88847 5.3472 4.01975 5.24887L5.5929 5.11211Z" fill="#A3B6CC"/>
    <path d="M1.50209 9.13219C1.33962 9.03619 1.13233 9.1395 1.1134 9.32725C0.849093 11.9477 0.913062 14.5929 1.3053 17.2014C1.51209 18.5765 2.6344 19.6308 4.01975 19.7512L5.59291 19.8879C8.85814 20.1718 12.1419 20.1718 15.4071 19.8879L16.9803 19.7512C18.3656 19.6308 19.4879 18.5765 19.6947 17.2014C20.0984 14.517 20.1544 11.7935 19.8627 9.09823C19.8422 8.90915 19.6315 8.80774 19.4697 8.90785L13.59 12.5477C11.6961 13.7201 9.30793 13.7447 7.39024 12.6116L1.50209 9.13219Z" fill="#A3B6CC"/>
    <circle cx="19.5" cy="3.5" r="3.5" fill="#FF5E61"/>
    </svg>
    