<svg width="19" height="19" viewBox="0 0 19 19" fill="none" xmlns="http://www.w3.org/2000/svg">
    <path fill-rule="evenodd" clip-rule="evenodd" d="M11.9845 13.0894C9.22372 15.3005 5.18265 15.1265 2.62349 12.5673C-0.122382 9.82147 -0.122382 5.36949 2.62349 2.62362C5.36937 -0.12226 9.82133 -0.12226 12.5672 2.62362C15.1263 5.18276 15.3004 9.22387 13.0892 11.9845L18.4598 17.355C18.7649 17.6601 18.7649 18.1547 18.4598 18.4598C18.1547 18.7649 17.66 18.7649 17.3549 18.4598L11.9845 13.0894ZM3.72835 11.4624C1.59267 9.32678 1.59267 5.86415 3.72835 3.72847C5.86403 1.59279 9.32664 1.59279 11.4624 3.72847C13.5964 5.86258 13.598 9.32168 11.4671 11.4577C11.4655 11.4593 11.4639 11.4608 11.4623 11.4624C11.4607 11.464 11.4591 11.4655 11.4577 11.4671C9.32153 13.5981 5.86246 13.5966 3.72835 11.4624Z" fill="#B8C7D9"/>
    </svg>
    