<svg width="17" height="19" viewBox="0 0 17 19" fill="none" xmlns="http://www.w3.org/2000/svg">
    <path fill-rule="evenodd" clip-rule="evenodd" d="M1.20837 13.9271C1.63984 13.9271 1.98962 14.2769 1.98962 14.7083V16.7916C1.98962 16.9355 2.10622 17.0521 2.25004 17.0521H14.75C14.8939 17.0521 15.0105 16.9355 15.0105 16.7916V14.7083C15.0105 14.2769 15.3602 13.9271 15.7917 13.9271C16.2232 13.9271 16.573 14.2769 16.573 14.7083V16.7916C16.573 17.7984 15.7568 18.6146 14.75 18.6146H2.25004C1.24327 18.6146 0.427124 17.7984 0.427124 16.7916V14.7083C0.427124 14.2769 0.776905 13.9271 1.20837 13.9271Z" fill="#067AFF"/>
    <path fill-rule="evenodd" clip-rule="evenodd" d="M7.18538 13.7993C6.64955 13.7993 6.20255 13.3898 6.15576 12.8559C5.99572 11.0302 5.96749 9.19553 6.07121 7.3661C5.81393 7.35188 5.55677 7.3354 5.29971 7.31667L3.74809 7.20356C3.14986 7.15995 2.81544 6.49291 3.13841 5.98746C4.24472 4.25613 5.67021 2.75099 7.33892 1.55231L7.96059 1.10576C8.28299 0.874172 8.71715 0.874172 9.03955 1.10576L9.66122 1.55231C11.3299 2.75099 12.7554 4.25612 13.8617 5.98746C14.1847 6.49291 13.8503 7.15995 13.252 7.20356L11.7004 7.31666C11.4434 7.3354 11.1862 7.35188 10.9289 7.3661C11.0327 9.19553 11.0044 11.0302 10.8443 12.856C10.7976 13.3898 10.3506 13.7993 9.81476 13.7993H7.18538Z" fill="#067AFF"/>
    </svg>
    