<svg width="21" height="15" viewBox="0 0 21 15" fill="none" xmlns="http://www.w3.org/2000/svg">
    <path d="M10.5 5.15625C9.20563 5.15625 8.15625 6.20563 8.15625 7.5C8.15625 8.79437 9.20563 9.84375 10.5 9.84375C11.7944 9.84375 12.8438 8.79437 12.8438 7.5C12.8438 6.20563 11.7944 5.15625 10.5 5.15625Z" fill="#F47432"/>
    <path fill-rule="evenodd" clip-rule="evenodd" d="M10.5 0.729187C7.77312 0.729187 5.3208 1.82438 3.55373 3.18059C2.66904 3.85959 1.94313 4.6137 1.4338 5.3476C0.934188 6.06752 0.604126 6.8245 0.604126 7.50002C0.604126 8.17554 0.934188 8.93252 1.4338 9.65242C1.94313 10.3864 2.66904 11.1404 3.55373 11.8194C5.3208 13.1756 7.77312 14.2709 10.5 14.2709C13.2268 14.2709 15.6791 13.1756 17.4462 11.8194C18.3309 11.1404 19.0568 10.3864 19.5661 9.65242C20.0657 8.93252 20.3958 8.17554 20.3958 7.50002C20.3958 6.8245 20.0657 6.06752 19.5661 5.3476C19.0568 4.6137 18.3309 3.85959 17.4462 3.18059C15.6791 1.82438 13.2268 0.729187 10.5 0.729187ZM6.59371 7.50002C6.59371 5.34266 8.3426 3.59377 10.5 3.59377C12.6574 3.59377 14.4062 5.34266 14.4062 7.50002C14.4062 9.65742 12.6574 11.4063 10.5 11.4063C8.3426 11.4063 6.59371 9.65742 6.59371 7.50002Z" fill="#F47432"/>
    </svg>
    